<svg width="16" height="16" viewBox="0 0 16 16" fill="none" xmlns="http://www.w3.org/2000/svg">
<rect width="14.4" height="14" transform="translate(0.600098 1)" fill="white"/>
<path fill-rule="evenodd" clip-rule="evenodd" d="M3.8001 2.21435C3.3681 2.23275 3.0577 2.27355 2.7833 2.36635C2.31401 2.52348 1.88755 2.78733 1.53747 3.13713C1.18738 3.48694 0.923203 3.91318 0.765698 4.38235C0.600098 4.87915 0.600098 5.49195 0.600098 6.71915C0.600098 6.79515 0.600098 6.83355 0.610498 6.86395C0.620319 6.89338 0.636852 6.92012 0.65879 6.94206C0.680728 6.964 0.707469 6.98053 0.736898 6.99035C0.767298 7.00075 0.805698 7.00075 0.882498 7.00075H14.7177C14.7945 7.00075 14.8329 7.00075 14.8633 6.99035C14.8927 6.98053 14.9195 6.964 14.9414 6.94206C14.9633 6.92012 14.9799 6.89338 14.9897 6.86395C15.0001 6.83275 15.0001 6.79435 15.0001 6.71755C15.0001 5.49115 15.0001 4.87755 14.8345 4.38315C14.6772 3.91369 14.4131 3.48713 14.063 3.13703C13.7129 2.78693 13.2864 2.52285 12.8169 2.36555C12.5425 2.27355 12.2313 2.23275 11.8001 2.21435V4.19995C11.8001 4.51821 11.6737 4.82344 11.4486 5.04848C11.2236 5.27352 10.9184 5.39995 10.6001 5.39995C10.2818 5.39995 9.97661 5.27352 9.75157 5.04848C9.52653 4.82344 9.4001 4.51821 9.4001 4.19995V2.19995H6.2001V4.19995C6.2001 4.51821 6.07367 4.82344 5.84863 5.04848C5.62358 5.27352 5.31836 5.39995 5.0001 5.39995C4.68184 5.39995 4.37661 5.27352 4.15157 5.04848C3.92653 4.82344 3.8001 4.51821 3.8001 4.19995V2.21435Z" fill="#6C727F" fill-opacity="0.25" stroke="#6C727F" stroke-width="0.8"/>
<path d="M0.600098 8.20005C0.600098 8.01125 0.600098 7.91685 0.658498 7.85845C0.716898 7.80005 0.811298 7.80005 1.0001 7.80005H14.6001C14.7889 7.80005 14.8833 7.80005 14.9417 7.85845C15.0001 7.91685 15.0001 8.01125 15.0001 8.20005V8.60005C15.0001 11.6168 15.0001 13.1256 14.0625 14.0624C13.1249 14.9992 11.6169 15 8.6001 15H7.0001C3.9833 15 2.4745 15 1.5377 14.0624C0.600898 13.1248 0.600098 11.6168 0.600098 8.60005V8.20005Z" fill="#6C727F" fill-opacity="0.25" stroke="#6C727F" stroke-width="0.8"/>
<path d="M5 1V4.2M10.6 1V4.2" stroke="#6C727F" stroke-linecap="round"/>
</svg>
