<svg width="67" height="66" viewBox="0 0 67 66" fill="none" xmlns="http://www.w3.org/2000/svg">
<g id="clients-icon">
<path id="Vector" d="M33.0996 0C14.8771 0 0.0996094 14.7775 0.0996094 33C0.0996094 51.2225 14.8771 66 33.0996 66C51.3221 66 66.0996 51.2225 66.0996 33C66.0996 14.7775 51.3221 0 33.0996 0Z" fill="#263640"/>
<g id="customer-svgrepo-com 1">
<g id="Group 57">
<path id="Vector_2" d="M39.6218 34.0292V30.1158H26.6157V34.0292C26.6157 34.6998 26.1544 35.2823 25.5016 35.4357L16.5605 37.5396C15.2549 37.847 14.332 39.0119 14.332 40.3532V46.2832C14.332 47.5802 15.3833 48.6315 16.6803 48.6315H49.5569C50.8539 48.6315 51.9052 47.5802 51.9052 46.2832V40.3532C51.9052 39.012 50.9825 37.847 49.6769 37.5397L40.7358 35.4359C40.0831 35.2823 39.6218 34.6998 39.6218 34.0292Z" fill="#E6AF78"/>
<path id="Vector_3" d="M49.6769 37.5397L42.1881 35.7777C41.1224 39.7954 37.4717 42.7608 33.1186 42.7608C28.7656 42.7608 25.1148 39.7954 24.0493 35.7777L16.5605 37.5397C15.2549 37.8471 14.332 39.012 14.332 40.3531V46.2833C14.332 47.5802 15.3835 48.6316 16.6803 48.6316H49.5569C50.8538 48.6316 51.9052 47.5802 51.9052 46.2833V40.3531C51.9052 39.0119 50.9824 37.847 49.6769 37.5397Z" fill="#FFD782"/>
<path id="Vector_4" d="M26.6153 34.0292C26.6153 34.5143 26.3718 34.9505 25.9912 35.2144C34.5635 39.5091 39.6215 31.0167 39.6215 31.0167V30.1157H26.6154V34.029H26.6153V34.0292Z" fill="#D29B6E"/>
<path id="Vector_5" d="M23.7251 13.1356L24.3548 26.9882C24.4136 28.2822 25.0482 29.4824 26.0844 30.2596L29.0721 32.5003C29.8226 33.0632 30.7353 33.3674 31.6733 33.3674H34.5635C35.5015 33.3674 36.4142 33.0632 37.1646 32.5003L40.1523 30.2596C41.1886 29.4823 41.8232 28.2822 41.882 26.9882L42.5117 13.1356H23.7251Z" fill="#F0C087"/>
<path id="Vector_6" d="M23.7251 13.1356L24.3548 26.9882C24.4136 28.2824 25.0482 29.4824 26.0844 30.2597L29.0721 32.5004C29.8226 33.0633 30.7353 33.3675 31.6733 33.3675H33.1183C30.9506 32.645 29.5056 26.8643 29.5056 26.8643L29.5846 19.8121C29.5911 19.2306 30.0226 18.7462 30.598 18.6621C34.4117 18.106 39.2801 17.008 42.5118 13.81V13.1355L23.7251 13.1356Z" fill="#E6AF78"/>
<path id="Vector_7" d="M22.2803 12.4131V13.1356L23.0028 21.0838H24.448L25.8931 16.7484C25.8931 16.7484 35.2865 16.7484 40.3445 13.8582L41.7896 21.0839H43.2348L43.9573 13.1357V12.4132C43.9571 8.42234 40.7221 5.18738 36.7315 5.18738H29.5058C25.5152 5.18738 22.2803 8.42234 22.2803 12.4131Z" fill="#5A4146"/>
<path id="Vector_8" d="M43.9113 22.2196L43.0953 25.4837C42.9986 25.8705 42.6511 26.1417 42.2525 26.1417C41.8144 26.1417 41.4449 25.8154 41.3905 25.3808L40.9732 22.0425C40.8616 21.1498 41.5577 20.3612 42.4573 20.3612H42.4601C43.4334 20.3612 44.1474 21.2755 43.9113 22.2196Z" fill="#F0C087"/>
<path id="Vector_9" d="M22.3257 22.2196L23.1417 25.4837C23.2384 25.8705 23.5858 26.1417 23.9844 26.1417C24.4226 26.1417 24.7921 25.8154 24.8465 25.3808L25.2637 22.0425C25.3753 21.1498 24.6793 20.3612 23.7796 20.3612H23.7768C22.8037 20.3612 22.0897 21.2755 22.3257 22.2196Z" fill="#E6AF78"/>
<g id="Group">
<path id="Vector_10" d="M19.6366 42.7678L14.9545 38.5618C14.5621 39.0586 14.332 39.6837 14.332 40.3529V46.2831C14.332 47.58 15.3833 48.6314 16.6803 48.6314H20.8351V45.4553C20.8351 44.4301 20.3993 43.4531 19.6366 42.7678Z" fill="#FFC36E"/>
<path id="Vector_11" d="M46.6007 42.7678L51.2828 38.5618C51.6752 39.0586 51.9053 39.6837 51.9053 40.3529V46.2831C51.9053 47.58 50.8539 48.6314 49.557 48.6314H45.4021V45.4553C45.4021 44.4301 45.8378 43.4531 46.6007 42.7678Z" fill="#FFC36E"/>
<path id="Vector_12" d="M42.1877 35.7777C41.1221 39.7954 37.4714 42.7608 33.1183 42.7608C28.7653 42.7608 25.1145 39.7954 24.049 35.7777L21.7678 36.3144L21.7793 36.3796C23.1425 41.5195 27.8053 45.1091 33.1183 45.1091C38.4313 45.1091 43.0941 41.5195 44.4575 36.3796L44.4637 36.3131L42.1877 35.7777Z" fill="#FFC36E"/>
</g>
</g>
<g id="Group 56">
<path id="Vector_13" d="M27.4597 55.3248L25.0668 54.9771L23.9966 52.8087C23.8195 52.4498 23.3076 52.4498 23.1305 52.8087L22.4434 54.201L26.244 60.6621C26.3631 60.5584 26.4356 60.4003 26.4046 60.2196L25.9959 57.8364L27.7274 56.1485C28.014 55.8692 27.8559 55.3824 27.4597 55.3248Z" fill="#FFD782"/>
<path id="Vector_14" d="M37.0378 55.3248L34.6449 54.9771L33.5748 52.8087C33.3976 52.4498 32.8858 52.4498 32.7086 52.8087L32.0215 54.201L35.8221 60.6621C35.9412 60.5584 36.0137 60.4003 35.9828 60.2196L35.574 57.8364L37.3056 56.1485C37.5921 55.8692 37.434 55.3824 37.0378 55.3248Z" fill="#FFD782"/>
<path id="Vector_15" d="M46.6157 55.3248L44.2228 54.9771L43.1526 52.8087C42.9755 52.4498 42.4636 52.4498 42.2865 52.8087L41.5994 54.201L45.4 60.6621C45.5191 60.5584 45.5916 60.4003 45.5606 60.2196L45.1519 57.8364L46.8834 56.1485C47.17 55.8692 47.0118 55.3824 46.6157 55.3248Z" fill="#FFD782"/>
<path id="Vector_16" d="M23.5633 59.6037L21.423 60.7289C21.0687 60.9152 20.6546 60.6143 20.7222 60.2198L21.131 57.8366L19.3995 56.1487C19.1129 55.8693 19.2711 55.3826 19.6672 55.3249L22.0601 54.9772L23.1302 52.8089C23.3074 52.4499 23.8193 52.4499 23.9964 52.8089L25.0665 54.9772L27.4594 55.3249C27.8556 55.3826 28.0137 55.8693 27.7271 56.1487L25.9956 57.8366L26.4043 60.2198C26.472 60.6143 26.0579 60.9152 25.7035 60.729L23.5633 59.6037Z" fill="#FFCD78"/>
<path id="Vector_17" d="M25.1624 55.6396C24.7836 55.5532 24.4854 55.2551 24.3991 54.8763C24.3926 54.8479 24.3549 54.8479 24.3483 54.8763C24.262 55.2551 23.9639 55.5533 23.5851 55.6396C23.5566 55.6461 23.5566 55.6838 23.5851 55.6904C23.9639 55.7767 24.262 56.0749 24.3483 56.4536C24.3549 56.4821 24.3926 56.4821 24.3991 56.4536C24.4854 56.0749 24.7836 55.7767 25.1624 55.6904C25.1909 55.6839 25.1909 55.6461 25.1624 55.6396Z" fill="white"/>
<path id="Vector_18" d="M33.1418 59.6034L31.0015 60.7286C30.6472 60.9149 30.2331 60.614 30.3007 60.2194L30.7094 57.8362L28.9779 56.1484C28.6913 55.869 28.8494 55.3822 29.2456 55.3246L31.6385 54.9769L32.7086 52.8085C32.8857 52.4496 33.3976 52.4496 33.5748 52.8085L34.6449 54.9769L37.0378 55.3246C37.4339 55.3822 37.5921 55.8689 37.3055 56.1484L35.5739 57.8362L35.9827 60.2194C36.0503 60.614 35.6362 60.9148 35.2819 60.7286L33.1418 59.6034Z" fill="#FFCD78"/>
<path id="Vector_19" d="M34.7403 55.6396C34.3615 55.5532 34.0633 55.2551 33.977 54.8763C33.9705 54.8479 33.9328 54.8479 33.9262 54.8763C33.8399 55.2551 33.5417 55.5533 33.163 55.6396C33.1345 55.6461 33.1345 55.6838 33.163 55.6904C33.5417 55.7767 33.8399 56.0749 33.9262 56.4536C33.9327 56.4821 33.9704 56.4821 33.977 56.4536C34.0633 56.0749 34.3615 55.7767 34.7403 55.6904C34.7687 55.6839 34.7687 55.6461 34.7403 55.6396Z" fill="white"/>
<path id="Vector_20" d="M42.7199 59.6034L40.5796 60.7286C40.2253 60.9149 39.8112 60.614 39.8788 60.2194L40.2876 57.8362L38.556 56.1484C38.2694 55.869 38.4276 55.3822 38.8237 55.3246L41.2166 54.9769L42.2867 52.8085C42.4639 52.4496 42.9758 52.4496 43.1529 52.8085L44.223 54.9769L46.6159 55.3246C47.0121 55.3822 47.1702 55.8689 46.8836 56.1484L45.1521 57.8362L45.5608 60.2194C45.6284 60.614 45.2143 60.9148 44.86 60.7286L42.7199 59.6034Z" fill="#FFCD78"/>
<path id="Vector_21" d="M44.3184 55.6396C43.9396 55.5532 43.6414 55.2551 43.5551 54.8763C43.5486 54.8479 43.5109 54.8479 43.5043 54.8763C43.418 55.2551 43.1199 55.5533 42.7411 55.6396C42.7126 55.6461 42.7126 55.6838 42.7411 55.6904C43.1199 55.7767 43.418 56.0749 43.5043 56.4536C43.5109 56.4821 43.5486 56.4821 43.5551 56.4536C43.6414 56.0749 43.9396 55.7767 44.3184 55.6904C44.3469 55.6839 44.3469 55.6461 44.3184 55.6396Z" fill="white"/>
</g>
</g>
</g>
</svg>
