<svg width="66" height="66" viewBox="0 0 66 66" fill="none" xmlns="http://www.w3.org/2000/svg">
<path d="M33 0C14.7775 0 0 14.7775 0 33C0 51.2225 14.7775 66 33 66C51.2225 66 66 51.2225 66 33C66 14.7775 51.2225 0 33 0Z" fill="#263640"/>
<path d="M41.0199 17.6338L53.7301 15.2506C54.9097 15.0295 56 15.9344 56 17.1345V51.5677C56 52.49 55.3431 53.2816 54.4366 53.4515L41.0199 55.9671C40.7865 56.0109 40.5469 56.0109 40.3135 55.9671L25.6866 53.2246C25.4532 53.1808 25.2136 53.1808 24.9802 53.2246L12.2699 55.6078C11.0903 55.829 10 54.9241 10 53.724V19.2908C10 18.3685 10.6569 17.5769 11.5634 17.407L24.9801 14.8914C25.2135 14.8476 25.4531 14.8476 25.6865 14.8914L40.3134 17.6339C40.5469 17.6776 40.7864 17.6776 41.0199 17.6338Z" fill="#E6E6E7"/>
<path d="M40.6668 17.6667V56C40.5485 56 40.4303 55.9891 40.3136 55.9672L25.6867 53.2247C25.57 53.2028 25.4517 53.1919 25.3335 53.1919V14.8585C25.4517 14.8585 25.57 14.8694 25.6867 14.8913L40.3136 17.6338C40.4303 17.6557 40.5485 17.6667 40.6668 17.6667Z" fill="#BEBCB2"/>
<path d="M41.7262 21.4015L52.1666 19.4439V49.977L40.6666 52.1333L26.3928 49.4569C26.0413 49.391 25.6874 49.3581 25.3334 49.3581C24.9794 49.3581 24.6253 49.3911 24.2737 49.457L13.8333 51.4145V20.8814L25.3333 18.7251L39.607 21.4015H39.6071C40.3101 21.5334 41.0231 21.5333 41.7262 21.4015Z" fill="#A5AA61"/>
<path d="M40.6668 21.5004V52.1333L26.3929 49.4569C26.0414 49.391 25.6875 49.3581 25.3335 49.3581V18.7252L39.6072 21.4016H39.6074C39.9588 21.4675 40.3128 21.5004 40.6668 21.5004Z" fill="#8A9249"/>
<path d="M40.5 33C39.581 33 38.7701 32.4174 38.5025 31.565L34.2858 18.1317C33.0157 14.0857 36.138 10 40.5 10C44.862 10 47.9843 14.0857 46.7142 18.1317L42.4975 31.565C42.2299 32.4174 41.419 33 40.5 33Z" fill="#D4632E"/>
<path d="M46.7142 18.1317L42.4975 31.565C42.2299 32.4174 41.419 33 40.5 33V10C44.862 10 47.9843 14.0857 46.7142 18.1317Z" fill="#BC3C28"/>
<path d="M43.5 16.5C43.5 18.1569 42.1569 19.5 40.5 19.5C38.8431 19.5 37.5 18.1569 37.5 16.5C37.5 14.8431 38.8431 13.5 40.5 13.5C42.1569 13.5 43.5 14.8431 43.5 16.5Z" fill="#F2F2F2"/>
<path d="M40.5 19.5V13.5C42.1569 13.5 43.5 14.8431 43.5 16.5C43.5 18.1569 42.1569 19.5 40.5 19.5Z" fill="#E0E0E0"/>
</svg>
