<svg width="374" height="250" viewBox="0 0 374 250" fill="none" xmlns="http://www.w3.org/2000/svg">
<g filter="url(#filter0_d_1_77)">
<rect x="110" y="30" width="234" height="110" rx="5" fill="white"/>
<rect x="110.5" y="30.5" width="233" height="109" rx="4.5" stroke="#F9F9F9"/>
</g>
<path d="M205.194 90.624H209.226V93H202.116V80.364H205.194V90.624ZM229.27 93.126C228.082 93.126 226.99 92.85 225.994 92.298C225.01 91.746 224.224 90.978 223.636 89.994C223.06 88.998 222.772 87.882 222.772 86.646C222.772 85.41 223.06 84.3 223.636 83.316C224.224 82.332 225.01 81.564 225.994 81.012C226.99 80.46 228.082 80.184 229.27 80.184C230.458 80.184 231.544 80.46 232.528 81.012C233.524 81.564 234.304 82.332 234.868 83.316C235.444 84.3 235.732 85.41 235.732 86.646C235.732 87.882 235.444 88.998 234.868 89.994C234.292 90.978 233.512 91.746 232.528 92.298C231.544 92.85 230.458 93.126 229.27 93.126ZM229.27 90.318C230.278 90.318 231.082 89.982 231.682 89.31C232.294 88.638 232.6 87.75 232.6 86.646C232.6 85.53 232.294 84.642 231.682 83.982C231.082 83.31 230.278 82.974 229.27 82.974C228.25 82.974 227.434 83.304 226.822 83.964C226.222 84.624 225.922 85.518 225.922 86.646C225.922 87.762 226.222 88.656 226.822 89.328C227.434 89.988 228.25 90.318 229.27 90.318ZM258.433 84.36C258.205 83.94 257.875 83.622 257.443 83.406C257.023 83.178 256.525 83.064 255.949 83.064C254.953 83.064 254.155 83.394 253.555 84.054C252.955 84.702 252.655 85.572 252.655 86.664C252.655 87.828 252.967 88.74 253.591 89.4C254.227 90.048 255.097 90.372 256.201 90.372C256.957 90.372 257.593 90.18 258.109 89.796C258.637 89.412 259.021 88.86 259.261 88.14H255.355V85.872H262.051V88.734C261.823 89.502 261.433 90.216 260.881 90.876C260.341 91.536 259.651 92.07 258.811 92.478C257.971 92.886 257.023 93.09 255.967 93.09C254.719 93.09 253.603 92.82 252.619 92.28C251.647 91.728 250.885 90.966 250.333 89.994C249.793 89.022 249.523 87.912 249.523 86.664C249.523 85.416 249.793 84.306 250.333 83.334C250.885 82.35 251.647 81.588 252.619 81.048C253.591 80.496 254.701 80.22 255.949 80.22C257.461 80.22 258.733 80.586 259.765 81.318C260.809 82.05 261.499 83.064 261.835 84.36H258.433ZM284.221 90.768H279.505L278.749 93H275.527L280.099 80.364H283.663L288.235 93H284.977L284.221 90.768ZM283.429 88.392L281.863 83.766L280.315 88.392H283.429ZM305.503 90.48H310.939V93H302.011V90.66L307.411 82.884H302.011V80.364H310.939V82.704L305.503 90.48Z" fill="#263640"/>
<path fill-rule="evenodd" clip-rule="evenodd" d="M162.361 79.8969V85.6586V98.0792H171.704C176.455 98.0792 179.274 95.9121 179.274 91.9487V91.8424C179.274 88.0897 176.351 85.6584 171.757 85.6584H166.39L170.4 79.8968L179.379 67H187L177.134 81.0077C182.198 82.4864 185.799 86.1343 185.799 92.2122V92.3185C185.799 95.5416 184.703 98.2909 182.772 100.299C180.422 102.625 176.821 104 172.227 104H155.941V76.1888H162.361V79.8969H162.361ZM143 67.0002H174.544L170.421 72.9203H149.42V104H143V67.0002Z" fill="#263640"/>
<defs>
<filter id="filter0_d_1_77" x="0" y="0" width="374" height="250" filterUnits="userSpaceOnUse" color-interpolation-filters="sRGB">
<feFlood flood-opacity="0" result="BackgroundImageFix"/>
<feColorMatrix in="SourceAlpha" type="matrix" values="0 0 0 0 0 0 0 0 0 0 0 0 0 0 0 0 0 0 127 0" result="hardAlpha"/>
<feOffset dx="-40" dy="40"/>
<feGaussianBlur stdDeviation="35"/>
<feColorMatrix type="matrix" values="0 0 0 0 0.0980392 0 0 0 0 0.0980392 0 0 0 0 0.0980392 0 0 0 0.04 0"/>
<feBlend mode="normal" in2="BackgroundImageFix" result="effect1_dropShadow_1_77"/>
<feBlend mode="normal" in="SourceGraphic" in2="effect1_dropShadow_1_77" result="shape"/>
</filter>
</defs>
</svg>
