<svg width="98" height="30" viewBox="0 0 98 30" fill="none" xmlns="http://www.w3.org/2000/svg">
<path d="M46.18 20.78H50.78V23H43.38V9.04H46.18V20.78ZM59.0397 23.14C57.733 23.14 56.533 22.8333 55.4397 22.22C54.3464 21.6067 53.4797 20.76 52.8397 19.68C52.1997 18.5867 51.8797 17.3533 51.8797 15.98C51.8797 14.62 52.1997 13.4 52.8397 12.32C53.4797 11.2267 54.3464 10.3733 55.4397 9.76C56.533 9.14667 57.733 8.84 59.0397 8.84C60.3597 8.84 61.5597 9.14667 62.6397 9.76C63.733 10.3733 64.593 11.2267 65.2197 12.32C65.8597 13.4 66.1797 14.62 66.1797 15.98C66.1797 17.3533 65.8597 18.5867 65.2197 19.68C64.593 20.76 63.733 21.6067 62.6397 22.22C61.5464 22.8333 60.3464 23.14 59.0397 23.14ZM59.0397 20.64C59.8797 20.64 60.6197 20.4533 61.2597 20.08C61.8997 19.6933 62.3997 19.1467 62.7597 18.44C63.1197 17.7333 63.2997 16.9133 63.2997 15.98C63.2997 15.0467 63.1197 14.2333 62.7597 13.54C62.3997 12.8333 61.8997 12.2933 61.2597 11.92C60.6197 11.5467 59.8797 11.36 59.0397 11.36C58.1997 11.36 57.453 11.5467 56.7997 11.92C56.1597 12.2933 55.6597 12.8333 55.2997 13.54C54.9397 14.2333 54.7597 15.0467 54.7597 15.98C54.7597 16.9133 54.9397 17.7333 55.2997 18.44C55.6597 19.1467 56.1597 19.6933 56.7997 20.08C57.453 20.4533 58.1997 20.64 59.0397 20.64ZM77.9828 13.24C77.6628 12.6533 77.2228 12.2067 76.6628 11.9C76.1028 11.5933 75.4495 11.44 74.7028 11.44C73.8761 11.44 73.1428 11.6267 72.5028 12C71.8628 12.3733 71.3628 12.9067 71.0028 13.6C70.6428 14.2933 70.4628 15.0933 70.4628 16C70.4628 16.9333 70.6428 17.7467 71.0028 18.44C71.3761 19.1333 71.8895 19.6667 72.5428 20.04C73.1961 20.4133 73.9561 20.6 74.8228 20.6C75.8895 20.6 76.7628 20.32 77.4428 19.76C78.1228 19.1867 78.5695 18.3933 78.7828 17.38H73.9828V15.24H81.5428V17.68C81.3561 18.6533 80.9561 19.5533 80.3428 20.38C79.7295 21.2067 78.9361 21.8733 77.9628 22.38C77.0028 22.8733 75.9228 23.12 74.7228 23.12C73.3761 23.12 72.1561 22.82 71.0628 22.22C69.9828 21.6067 69.1295 20.76 68.5028 19.68C67.8895 18.6 67.5828 17.3733 67.5828 16C67.5828 14.6267 67.8895 13.4 68.5028 12.32C69.1295 11.2267 69.9828 10.38 71.0628 9.78C72.1561 9.16667 73.3695 8.86 74.7028 8.86C76.2761 8.86 77.6428 9.24667 78.8028 10.02C79.9628 10.78 80.7628 11.8533 81.2028 13.24H77.9828ZM90.0944 23.14C88.7877 23.14 87.5877 22.8333 86.4944 22.22C85.401 21.6067 84.5344 20.76 83.8944 19.68C83.2544 18.5867 82.9344 17.3533 82.9344 15.98C82.9344 14.62 83.2544 13.4 83.8944 12.32C84.5344 11.2267 85.401 10.3733 86.4944 9.76C87.5877 9.14667 88.7877 8.84 90.0944 8.84C91.4144 8.84 92.6144 9.14667 93.6944 9.76C94.7877 10.3733 95.6477 11.2267 96.2744 12.32C96.9144 13.4 97.2344 14.62 97.2344 15.98C97.2344 17.3533 96.9144 18.5867 96.2744 19.68C95.6477 20.76 94.7877 21.6067 93.6944 22.22C92.601 22.8333 91.401 23.14 90.0944 23.14ZM90.0944 20.64C90.9344 20.64 91.6744 20.4533 92.3144 20.08C92.9544 19.6933 93.4544 19.1467 93.8144 18.44C94.1744 17.7333 94.3544 16.9133 94.3544 15.98C94.3544 15.0467 94.1744 14.2333 93.8144 13.54C93.4544 12.8333 92.9544 12.2933 92.3144 11.92C91.6744 11.5467 90.9344 11.36 90.0944 11.36C89.2544 11.36 88.5077 11.5467 87.8544 11.92C87.2144 12.2933 86.7144 12.8333 86.3544 13.54C85.9944 14.2333 85.8144 15.0467 85.8144 15.98C85.8144 16.9133 85.9944 17.7333 86.3544 18.44C86.7144 19.1467 87.2144 19.6933 87.8544 20.08C88.5077 20.4533 89.2544 20.64 90.0944 20.64Z" fill="white"/>
<path d="M3 21.5V3H19.5V21.5" stroke="#E4E3E8" stroke-width="6"/>
<path d="M27.5 8V26.5H11V8" stroke="#E4E3E8" stroke-width="6"/>
</svg>
