<svg width="18" height="18" viewBox="0 0 18 18" fill="none" xmlns="http://www.w3.org/2000/svg">
<path opacity="0.2" d="M6.50391 8.77496C7.08273 9.97028 8.04929 10.9344 9.24609 11.5101C9.33437 11.5519 9.43202 11.57 9.52942 11.5626C9.62681 11.5552 9.72061 11.5226 9.80156 11.4679L11.5594 10.2937C11.637 10.241 11.7268 10.2089 11.8202 10.2003C11.9137 10.1917 12.0078 10.2069 12.0938 10.2445L15.3844 11.6578C15.4968 11.7046 15.5908 11.7871 15.6518 11.8925C15.7128 11.998 15.7374 12.1205 15.7219 12.2414C15.6176 13.0554 15.2202 13.8035 14.6042 14.3458C13.9882 14.8881 13.1957 15.1873 12.375 15.1875C9.83887 15.1875 7.40661 14.18 5.61329 12.3867C3.81998 10.5934 2.8125 8.16109 2.8125 5.62496C2.81268 4.80427 3.1119 4.01177 3.65416 3.39574C4.19642 2.77972 4.94456 2.38238 5.75859 2.27809C5.87942 2.26257 6.00199 2.2872 6.10745 2.34818C6.2129 2.40916 6.29538 2.50312 6.34219 2.61559L7.75547 5.91324C7.79222 5.99786 7.8076 6.09022 7.80024 6.18218C7.79288 6.27415 7.76302 6.36289 7.71328 6.44059L6.53906 8.22652C6.48679 8.3073 6.4561 8.40014 6.44995 8.49616C6.44379 8.59218 6.46237 8.68817 6.50391 8.77496Z" fill="#6C727F"/>
<path fill-rule="evenodd" clip-rule="evenodd" d="M5.68711 1.72015C5.93023 1.68896 6.17686 1.73853 6.38905 1.86124C6.60029 1.98341 6.76573 2.17131 6.86017 2.39625L8.27141 5.68916C8.27161 5.68963 8.27182 5.6901 8.27202 5.69057C8.34508 5.85943 8.37562 6.04363 8.36095 6.22704C8.34623 6.41097 8.28651 6.58845 8.18703 6.74385L8.18333 6.74963L7.01131 8.53215C7.53437 9.61097 8.40677 10.4813 9.48683 11.0017L9.48911 11.0002L11.2455 9.82689C11.4014 9.72164 11.5813 9.65741 11.7686 9.64016C11.9559 9.62291 12.1446 9.6532 12.317 9.72821C12.3177 9.72851 12.3184 9.72882 12.3191 9.72913L15.604 11.1399C15.8288 11.2344 16.0166 11.3998 16.1387 11.6109C16.2614 11.8231 16.311 12.0697 16.2798 12.3129C16.1581 13.2626 15.6946 14.1354 14.9759 14.768C14.2572 15.4007 13.3326 15.7497 12.3751 15.75C9.68981 15.75 7.11435 14.6832 5.21554 12.7844C3.31674 10.8856 2.25 8.31028 2.25 5.62496C2.25022 4.66749 2.5993 3.74278 3.23194 3.02408C3.86453 2.30543 4.73747 1.84186 5.68711 1.72015ZM6.50391 8.77496L5.99652 9.01778C5.91345 8.8442 5.87629 8.65221 5.8886 8.46017C5.90091 8.26813 5.96228 8.08246 6.06683 7.92091L6.06904 7.91749L7.23951 6.13728L7.23844 6.13483L5.82517 2.83717C5.14879 2.92509 4.52713 3.25534 4.07638 3.76741C3.62453 4.28073 3.37518 4.9411 3.375 5.62496M6.50391 8.77496L5.99764 9.02012C6.63186 10.3298 7.69091 11.3862 9.00224 12.017L9.00537 12.0185C9.18193 12.1021 9.37722 12.1383 9.57202 12.1235C9.76631 12.1087 9.95343 12.0438 10.1151 11.935C10.1155 11.9347 10.1159 11.9344 10.1163 11.9341L11.8718 10.7615L15.1624 12.1746L15.1633 12.175C15.0753 12.8514 14.7446 13.4728 14.2326 13.9236C13.7192 14.3754 13.0589 14.6248 12.375 14.625M3.375 5.62496C3.37503 8.01187 4.32324 10.3011 6.01104 11.9889C7.69884 13.6767 9.9881 14.6249 12.375 14.625" fill="#6C727F"/>
</svg>
