<svg width="66" height="66" viewBox="0 0 66 66" fill="none" xmlns="http://www.w3.org/2000/svg">
<path d="M33 0C14.7775 0 0 14.7775 0 33C0 51.2225 14.7775 66 33 66C51.2225 66 66 51.2225 66 33C66 14.7775 51.2225 0 33 0Z" fill="#263640"/>
<mask id="mask0_1_109" style="mask-type:alpha" maskUnits="userSpaceOnUse" x="0" y="0" width="66" height="66">
<path d="M33 0C14.7775 0 0 14.7775 0 33C0 51.2225 14.7775 66 33 66C51.2225 66 66 51.2225 66 33C66 14.7775 51.2225 0 33 0Z" fill="#263640"/>
</mask>
<g mask="url(#mask0_1_109)">
<path d="M21.1364 21.3483H15.8691V26.6155H21.1364V21.3483Z" fill="#A9D0D3"/>
<path d="M21.1356 31.8827H15.8684V37.1499H21.1356V31.8827Z" fill="#A9D0D3"/>
<path d="M21.1356 52.9517H15.8684V58.2189H21.1356V52.9517Z" fill="#A9D0D3"/>
<path d="M31.6701 21.3484H26.4028V26.6156H31.6701V21.3484Z" fill="#A9D0D3"/>
<path d="M21.1356 42.4172H15.8684V47.6845H21.1356V42.4172Z" fill="#A9D0D3"/>
<path d="M39.571 58.219H31.6702V66.1198H39.571V58.219Z" fill="#A9D0D3"/>
<path d="M10.6008 66.1198V16.0811H36.937V31.8827H27.7193C26.9933 31.8827 26.4025 32.4736 26.4025 33.1996V66.1198H10.6008ZM15.8681 58.2189H21.1353V52.9517H15.8681V58.2189ZM15.8681 47.6844H21.1353V42.4172H15.8681V47.6844ZM15.8681 37.15H21.1353V31.8827H15.8681V37.15ZM26.4025 26.6155H31.6698V21.3483H26.4025V26.6155ZM15.8681 26.6155H21.1353V21.3483H15.8681V26.6155Z" fill="#79615B"/>
<path d="M50.1052 37.1499H31.6699V42.4171H50.1052V37.1499Z" fill="#A9D0D3"/>
<path d="M50.105 47.6843H31.6697V52.9516H50.105V47.6843Z" fill="#A9D0D3"/>
<path d="M50.1049 58.2189H44.8376V66.1197H50.1049V58.2189Z" fill="#FF877F"/>
<path d="M50.1051 66.1197V59.5357C50.1051 58.8097 49.5143 58.2188 48.7883 58.2188H46.1547C45.4287 58.2188 44.8379 58.8097 44.8379 59.5357V66.1197H39.5707V59.5357C39.5707 58.8097 38.9799 58.2188 38.2539 58.2188H32.9866C32.2606 58.2188 31.6698 58.8097 31.6698 59.5357V66.1197H26.4026V31.8827H55.3724V66.1197H50.1051ZM32.9866 47.6844C32.2606 47.6844 31.6698 48.2752 31.6698 49.0012V51.6348C31.6698 52.3608 32.2606 52.9516 32.9866 52.9516H48.7883C49.5143 52.9516 50.1051 52.3608 50.1051 51.6348V49.0012C50.1051 48.2752 49.5143 47.6844 48.7883 47.6844H32.9866ZM32.9866 37.1499C32.2606 37.1499 31.6698 37.7407 31.6698 38.4667V41.1003C31.6698 41.8263 32.2606 42.4172 32.9866 42.4172H48.7883C49.5143 42.4172 50.1051 41.8263 50.1051 41.1003V38.4667C50.1051 37.7407 49.5143 37.1499 48.7883 37.1499H32.9866Z" fill="#9A8984"/>
<path d="M32.9864 54.2685H48.7881C50.2428 54.2685 51.4217 53.0896 51.4217 51.6349V49.0013C51.4217 47.5466 50.2428 46.3677 48.7881 46.3677H32.9864C31.5317 46.3677 30.3528 47.5466 30.3528 49.0013V51.6349C30.3528 53.0896 31.5317 54.2685 32.9864 54.2685ZM32.9864 49.0013H48.7881V51.6349H32.9864V49.0013Z" fill="#573A32"/>
<path d="M32.9864 43.734H48.7881C50.2428 43.734 51.4217 42.555 51.4217 41.1004V38.4667C51.4217 37.0121 50.2428 35.8331 48.7881 35.8331H32.9864C31.5317 35.8331 30.3528 37.0121 30.3528 38.4667V41.1004C30.3528 42.555 31.5317 43.734 32.9864 43.734ZM32.9864 38.4667H48.7881V41.1004H32.9864V38.4667Z" fill="#573A32"/>
<path d="M21.1353 20.0314H15.8681C15.1403 20.0314 14.5513 20.6204 14.5513 21.3482V26.6154C14.5513 27.3432 15.1403 27.9322 15.8681 27.9322H21.1353C21.863 27.9322 22.4521 27.3432 22.4521 26.6154V21.3482C22.4521 20.6204 21.863 20.0314 21.1353 20.0314ZM19.8185 25.2986H17.1849V22.665H19.8185V25.2986Z" fill="#573A32"/>
<path d="M32.9865 26.6154V21.3482C32.9865 20.6204 32.3975 20.0314 31.6697 20.0314H26.4025C25.6748 20.0314 25.0857 20.6204 25.0857 21.3482V26.6154C25.0857 27.3432 25.6748 27.9322 26.4025 27.9322H31.6697C32.3975 27.9322 32.9865 27.3432 32.9865 26.6154ZM30.3529 25.2986H27.7193V22.665H30.3529V25.2986Z" fill="#573A32"/>
<path d="M21.1353 30.5659H15.8681C15.1403 30.5659 14.5513 31.155 14.5513 31.8827V37.15C14.5513 37.8777 15.1403 38.4668 15.8681 38.4668H21.1353C21.863 38.4668 22.4521 37.8777 22.4521 37.15V31.8827C22.4521 31.155 21.863 30.5659 21.1353 30.5659ZM19.8185 35.8331H17.1849V33.1995H19.8185V35.8331Z" fill="#573A32"/>
<path d="M21.1353 41.1003H15.8681C15.1403 41.1003 14.5513 41.6894 14.5513 42.4171V47.6844C14.5513 48.4121 15.1403 49.0012 15.8681 49.0012H21.1353C21.863 49.0012 22.4521 48.4121 22.4521 47.6844V42.4171C22.4521 41.6894 21.863 41.1003 21.1353 41.1003ZM19.8185 46.3676H17.1849V43.734H19.8185V46.3676Z" fill="#573A32"/>
<path d="M21.1353 51.6349H15.8681C15.1403 51.6349 14.5513 52.224 14.5513 52.9517V58.2189C14.5513 58.9467 15.1403 59.5357 15.8681 59.5357H21.1353C21.863 59.5357 22.4521 58.9467 22.4521 58.2189V52.9517C22.4521 52.224 21.863 51.6349 21.1353 51.6349ZM19.8185 56.9021H17.1849V54.2685H19.8185V56.9021Z" fill="#573A32"/>
<path d="M58.0059 64.803H56.6891V33.1996C56.6891 31.7449 55.5101 30.566 54.0555 30.566H38.2538V17.3979C38.2538 15.9432 37.0748 14.7643 35.6202 14.7643H11.9176C10.463 14.7643 9.28401 15.9432 9.28401 17.3979V64.803H7.9672C7.23946 64.803 6.65039 65.392 6.65039 66.1198C6.65039 66.8475 7.23946 67.4366 7.9672 67.4366H58.0059C58.7336 67.4366 59.3227 66.8475 59.3227 66.1198C59.3227 65.392 58.7336 64.803 58.0059 64.803ZM25.0857 33.1996V64.803H11.9176V17.3979H35.6202V30.566H27.7193C26.2647 30.566 25.0857 31.7449 25.0857 33.1996ZM38.2538 64.803H32.9865V59.5357H38.2538V64.803ZM48.7882 64.803H46.1546V59.5357H48.7882V64.803ZM54.0555 64.803H51.4219V59.5357C51.4219 58.0811 50.2429 56.9021 48.7882 56.9021H46.1546C44.7 56.9021 43.521 58.0811 43.521 59.5357V64.803H40.8874V59.5357C40.8874 58.0811 39.7084 56.9021 38.2538 56.9021H32.9865C31.5319 56.9021 30.3529 58.0811 30.3529 59.5357V64.803H27.7193V33.1996H54.0555V64.803Z" fill="#573A32"/>
</g>
</svg>
