<svg width="374" height="250" viewBox="0 0 374 250" fill="none" xmlns="http://www.w3.org/2000/svg">
<g filter="url(#filter0_d_1_82)">
<rect x="110" y="30" width="234" height="110" rx="5" fill="white"/>
<rect x="110.5" y="30.5" width="233" height="109" rx="4.5" stroke="#F9F9F9"/>
</g>
<path d="M207.688 92.126C206.764 92.126 205.936 91.976 205.204 91.676C204.472 91.376 203.884 90.932 203.44 90.344C203.008 89.756 202.78 89.048 202.756 88.22H206.032C206.08 88.688 206.242 89.048 206.518 89.3C206.794 89.54 207.154 89.66 207.598 89.66C208.054 89.66 208.414 89.558 208.678 89.354C208.942 89.138 209.074 88.844 209.074 88.472C209.074 88.16 208.966 87.902 208.75 87.698C208.546 87.494 208.288 87.326 207.976 87.194C207.676 87.062 207.244 86.912 206.68 86.744C205.864 86.492 205.198 86.24 204.682 85.988C204.166 85.736 203.722 85.364 203.35 84.872C202.978 84.38 202.792 83.738 202.792 82.946C202.792 81.77 203.218 80.852 204.07 80.192C204.922 79.52 206.032 79.184 207.4 79.184C208.792 79.184 209.914 79.52 210.766 80.192C211.618 80.852 212.074 81.776 212.134 82.964H208.804C208.78 82.556 208.63 82.238 208.354 82.01C208.078 81.77 207.724 81.65 207.292 81.65C206.92 81.65 206.62 81.752 206.392 81.956C206.164 82.148 206.05 82.43 206.05 82.802C206.05 83.21 206.242 83.528 206.626 83.756C207.01 83.984 207.61 84.23 208.426 84.494C209.242 84.77 209.902 85.034 210.406 85.286C210.922 85.538 211.366 85.904 211.738 86.384C212.11 86.864 212.296 87.482 212.296 88.238C212.296 88.958 212.11 89.612 211.738 90.2C211.378 90.788 210.85 91.256 210.154 91.604C209.458 91.952 208.636 92.126 207.688 92.126ZM236.42 83.432C236.42 84.164 236.252 84.836 235.916 85.448C235.58 86.048 235.064 86.534 234.368 86.906C233.672 87.278 232.808 87.464 231.776 87.464H229.868V92H226.79V79.364H231.776C232.784 79.364 233.636 79.538 234.332 79.886C235.028 80.234 235.55 80.714 235.898 81.326C236.246 81.938 236.42 82.64 236.42 83.432ZM231.542 85.016C232.13 85.016 232.568 84.878 232.856 84.602C233.144 84.326 233.288 83.936 233.288 83.432C233.288 82.928 233.144 82.538 232.856 82.262C232.568 81.986 232.13 81.848 231.542 81.848H229.868V85.016H231.542ZM258.489 89.768H253.773L253.017 92H249.795L254.367 79.364H257.931L262.503 92H259.245L258.489 89.768ZM257.697 87.392L256.131 82.766L254.583 87.392H257.697ZM282.938 92L280.31 87.23H279.572V92H276.494V79.364H281.66C282.656 79.364 283.502 79.538 284.198 79.886C284.906 80.234 285.434 80.714 285.782 81.326C286.13 81.926 286.304 82.598 286.304 83.342C286.304 84.182 286.064 84.932 285.584 85.592C285.116 86.252 284.42 86.72 283.496 86.996L286.412 92H282.938ZM279.572 85.052H281.48C282.044 85.052 282.464 84.914 282.74 84.638C283.028 84.362 283.172 83.972 283.172 83.468C283.172 82.988 283.028 82.61 282.74 82.334C282.464 82.058 282.044 81.92 281.48 81.92H279.572V85.052ZM308.162 92L303.914 86.42V92H300.836V79.364H303.914V84.908L308.126 79.364H311.744L306.848 85.556L311.924 92H308.162Z" fill="#263640"/>
<path fill-rule="evenodd" clip-rule="evenodd" d="M172.299 80.9565L180.148 80.9792L167.304 103.017L153.546 103.017L145 88.3525C147.772 88.5668 151.036 89.0911 152.918 90.4468C154.852 91.841 156.431 94.5001 157.622 96.5278L160.356 101.16L164.813 93.8009L172.299 80.9565Z" fill="#263640"/>
<path fill-rule="evenodd" clip-rule="evenodd" d="M160.701 88.0609L152.852 88.0382L165.695 66L179.454 66.0003L188 80.6648C185.228 80.4505 181.964 79.9264 180.082 78.5705C178.148 77.176 176.569 74.5173 175.378 72.4894L172.643 67.8572L168.187 75.2162L160.701 88.0609Z" fill="#263640"/>
<defs>
<filter id="filter0_d_1_82" x="0" y="0" width="374" height="250" filterUnits="userSpaceOnUse" color-interpolation-filters="sRGB">
<feFlood flood-opacity="0" result="BackgroundImageFix"/>
<feColorMatrix in="SourceAlpha" type="matrix" values="0 0 0 0 0 0 0 0 0 0 0 0 0 0 0 0 0 0 127 0" result="hardAlpha"/>
<feOffset dx="-40" dy="40"/>
<feGaussianBlur stdDeviation="35"/>
<feColorMatrix type="matrix" values="0 0 0 0 0.0980392 0 0 0 0 0.0980392 0 0 0 0 0.0980392 0 0 0 0.04 0"/>
<feBlend mode="normal" in2="BackgroundImageFix" result="effect1_dropShadow_1_82"/>
<feBlend mode="normal" in="SourceGraphic" in2="effect1_dropShadow_1_82" result="shape"/>
</filter>
</defs>
</svg>
