<svg width="374" height="250" viewBox="0 0 374 250" fill="none" xmlns="http://www.w3.org/2000/svg">
<g filter="url(#filter0_d_1_72)">
<rect x="110" y="30" width="234" height="110" rx="5" fill="white"/>
<rect x="110.5" y="30.5" width="233" height="109" rx="4.5" stroke="#F9F9F9"/>
</g>
<path d="M200.688 92.126C199.764 92.126 198.936 91.976 198.204 91.676C197.472 91.376 196.884 90.932 196.44 90.344C196.008 89.756 195.78 89.048 195.756 88.22H199.032C199.08 88.688 199.242 89.048 199.518 89.3C199.794 89.54 200.154 89.66 200.598 89.66C201.054 89.66 201.414 89.558 201.678 89.354C201.942 89.138 202.074 88.844 202.074 88.472C202.074 88.16 201.966 87.902 201.75 87.698C201.546 87.494 201.288 87.326 200.976 87.194C200.676 87.062 200.244 86.912 199.68 86.744C198.864 86.492 198.198 86.24 197.682 85.988C197.166 85.736 196.722 85.364 196.35 84.872C195.978 84.38 195.792 83.738 195.792 82.946C195.792 81.77 196.218 80.852 197.07 80.192C197.922 79.52 199.032 79.184 200.4 79.184C201.792 79.184 202.914 79.52 203.766 80.192C204.618 80.852 205.074 81.776 205.134 82.964H201.804C201.78 82.556 201.63 82.238 201.354 82.01C201.078 81.77 200.724 81.65 200.292 81.65C199.92 81.65 199.62 81.752 199.392 81.956C199.164 82.148 199.05 82.43 199.05 82.802C199.05 83.21 199.242 83.528 199.626 83.756C200.01 83.984 200.61 84.23 201.426 84.494C202.242 84.77 202.902 85.034 203.406 85.286C203.922 85.538 204.366 85.904 204.738 86.384C205.11 86.864 205.296 87.482 205.296 88.238C205.296 88.958 205.11 89.612 204.738 90.2C204.378 90.788 203.85 91.256 203.154 91.604C202.458 91.952 201.636 92.126 200.688 92.126ZM229.42 83.432C229.42 84.164 229.252 84.836 228.916 85.448C228.58 86.048 228.064 86.534 227.368 86.906C226.672 87.278 225.808 87.464 224.776 87.464H222.868V92H219.79V79.364H224.776C225.784 79.364 226.636 79.538 227.332 79.886C228.028 80.234 228.55 80.714 228.898 81.326C229.246 81.938 229.42 82.64 229.42 83.432ZM224.542 85.016C225.13 85.016 225.568 84.878 225.856 84.602C226.144 84.326 226.288 83.936 226.288 83.432C226.288 82.928 226.144 82.538 225.856 82.262C225.568 81.986 225.13 81.848 224.542 81.848H222.868V85.016H224.542ZM249.599 92.126C248.411 92.126 247.319 91.85 246.323 91.298C245.339 90.746 244.553 89.978 243.965 88.994C243.389 87.998 243.101 86.882 243.101 85.646C243.101 84.41 243.389 83.3 243.965 82.316C244.553 81.332 245.339 80.564 246.323 80.012C247.319 79.46 248.411 79.184 249.599 79.184C250.787 79.184 251.873 79.46 252.857 80.012C253.853 80.564 254.633 81.332 255.197 82.316C255.773 83.3 256.061 84.41 256.061 85.646C256.061 86.882 255.773 87.998 255.197 88.994C254.621 89.978 253.841 90.746 252.857 91.298C251.873 91.85 250.787 92.126 249.599 92.126ZM249.599 89.318C250.607 89.318 251.411 88.982 252.011 88.31C252.623 87.638 252.929 86.75 252.929 85.646C252.929 84.53 252.623 83.642 252.011 82.982C251.411 82.31 250.607 81.974 249.599 81.974C248.579 81.974 247.763 82.304 247.151 82.964C246.551 83.624 246.251 84.518 246.251 85.646C246.251 86.762 246.551 87.656 247.151 88.328C247.763 88.988 248.579 89.318 249.599 89.318ZM281.677 92H278.599L273.451 84.206V92H270.373V79.364H273.451L278.599 87.194V79.364H281.677V92ZM304.374 89.768H299.658L298.902 92H295.68L300.252 79.364H303.816L308.388 92H305.13L304.374 89.768ZM303.582 87.392L302.016 82.766L300.468 87.392H303.582Z" fill="#263640"/>
<path fill-rule="evenodd" clip-rule="evenodd" d="M151.315 96.0885L174.244 82.8315V72.3431L165.001 67L149.001 76.2503L149 81.4946L165.001 72.2444L167.394 73.6284L149 84.2623L149.001 89.5056L169.708 77.5347L169.709 80.2103L149 92.1817L149 94.7502L151.315 96.0885ZM176.464 92.128L176.464 92.1286L170.732 95.4413L165.001 98.7555L162.606 97.3713L169.535 93.3661L176.464 89.3609V92.128ZM176.464 84.1158L153.535 97.3723L165 104L181 94.7502C181 88.5837 181 82.4185 181 76.2502L176.464 73.6277V84.1158H176.464Z" fill="#263640"/>
<defs>
<filter id="filter0_d_1_72" x="0" y="0" width="374" height="250" filterUnits="userSpaceOnUse" color-interpolation-filters="sRGB">
<feFlood flood-opacity="0" result="BackgroundImageFix"/>
<feColorMatrix in="SourceAlpha" type="matrix" values="0 0 0 0 0 0 0 0 0 0 0 0 0 0 0 0 0 0 127 0" result="hardAlpha"/>
<feOffset dx="-40" dy="40"/>
<feGaussianBlur stdDeviation="35"/>
<feColorMatrix type="matrix" values="0 0 0 0 0.0980392 0 0 0 0 0.0980392 0 0 0 0 0.0980392 0 0 0 0.04 0"/>
<feBlend mode="normal" in2="BackgroundImageFix" result="effect1_dropShadow_1_72"/>
<feBlend mode="normal" in="SourceGraphic" in2="effect1_dropShadow_1_72" result="shape"/>
</filter>
</defs>
</svg>
